# xmcd CD database file
#
# Track frame offsets:
#	300
#	11230
#	23157
#	36056
#	44882
#	54390
#	65700
#	78110
#	92098
#	109301
#	121434
#	133332
#	142371
#	154557
#	165526
#	174305
#	187126
#	196710
#	215257
#	225901
#	238671
#	253164
#	263241
#	273983
#	286431
#	298107
#	314768
#	327199
#	345905
#
# Disc length: 4721 seconds
#
# Revision: 0
# Processed by: cddbd v1.5.2PL0 Copyright (c) Steve Scherf et al.
# Submitted via: jetAudio 7
#
DISCID=ba126d1d
DTITLE=Various Artist - In The Pines ( The Best Of Bluegrass)
DYEAR=1900
DGENRE=Country
TTITLE0=Two Flowers
TTITLE1=20/20 Vison
TTITLE2=When I Take My Vacation
TTITLE3=I Believe In the Old Time Way
TTITLE4=Darling Please Come Home
TTITLE5=When You And Were Young Maggie
TTITLE6=Little White Church
TTITLE7=The Little Girl And The Dreadful Snake
TTITLE8=In The Pines
TTITLE9=Before The Sun Goes Down
TTITLE10=I'll Drink No More Wine
TTITLE11=Who'll Sing For Me
TTITLE12=Grave On The Green Hillside
TTITLE13=My Walking Shoes
TTITLE14=Brakemans Blues
TTITLE15=Ocean Of Diamonds
TTITLE16=Midnite Ramble
TTITLE17=Little Bessie
TTITLE18=Sailing For Glory
TTITLE19=Drunken Driver
TTITLE20=The Flood
TTITLE21=Our Darlings Gone
TTITLE22=Death Is Only A Dream
TTITLE23=I Walk The Line
TTITLE24=Ring Of Fire
TTITLE25=Folsom Prison Blues
TTITLE26=Jackson
TTITLE27=I Love You This Much
TTITLE28=How Highs The Water
EXTD=
EXTT0=
EXTT1=
EXTT2=
EXTT3=
EXTT4=
EXTT5=
EXTT6=
EXTT7=
EXTT8=
EXTT9=
EXTT10=
EXTT11=
EXTT12=
EXTT13=
EXTT14=
EXTT15=
EXTT16=
EXTT17=
EXTT18=
EXTT19=
EXTT20=
EXTT21=
EXTT22=
EXTT23=
EXTT24=
EXTT25=
EXTT26=
EXTT27=
EXTT28=
PLAYORDER=
